<?xml version="1.0" encoding="utf-8"?>
<!-- Generator: Adobe Illustrator 25.0.0, SVG Export Plug-In . SVG Version: 6.00 Build 0)  -->
<svg version="1.1" xmlns="http://www.w3.org/2000/svg" xmlns:xlink="http://www.w3.org/1999/xlink" x="0px" y="0px"
	 viewBox="0 0 1584 350" style="enable-background:new 0 0 1584 350;" xml:space="preserve">
<style type="text/css">
	.st0{fill:#FFF3BF;}
	.st1{fill:none;}
	.st2{fill:#42ADE2;}
	.st3{fill:#FFDD67;}
	.st4{fill:#EBA352;}
</style>
<g id="Слой_1">
	<rect x="0.8" y="-7.6" class="st0" width="1584" height="371.7"/>
	<g>
		<rect x="72.2" y="137.3" class="st1" width="436.6" height="61.4"/>
		<path d="M78.9,154.1c2.5-4.5,6-7.9,10.4-10.4c4.4-2.5,9.3-3.7,14.8-3.7c6.4,0,12,1.6,16.8,4.9c4.8,3.3,8.2,7.8,10.1,13.6h-13.2
			c-1.3-2.7-3.2-4.8-5.5-6.1c-2.4-1.4-5.1-2.1-8.2-2.1c-3.3,0-6.3,0.8-8.9,2.3c-2.6,1.6-4.6,3.8-6.1,6.6c-1.4,2.8-2.2,6.2-2.2,10
			c0,3.8,0.7,7.1,2.2,10c1.4,2.9,3.5,5.1,6.1,6.6c2.6,1.6,5.6,2.3,8.9,2.3c3.1,0,5.9-0.7,8.2-2.1c2.4-1.4,4.2-3.5,5.5-6.2H131
			c-1.9,5.9-5.3,10.4-10,13.7c-4.8,3.3-10.4,4.9-16.9,4.9c-5.5,0-10.4-1.2-14.8-3.7c-4.4-2.5-7.9-5.9-10.4-10.4
			c-2.5-4.4-3.8-9.5-3.8-15.1C75.1,163.6,76.4,158.6,78.9,154.1z"/>
		<path d="M149.2,195.8c-3.5-1.9-6.2-4.7-8.2-8.2c-2-3.6-3-7.7-3-12.3c0-4.6,1-8.7,3.1-12.3c2.1-3.6,4.9-6.3,8.4-8.2
			c3.6-1.9,7.5-2.9,11.9-2.9c4.4,0,8.3,1,11.9,2.9c3.6,1.9,6.4,4.7,8.4,8.2c2,3.6,3.1,7.7,3.1,12.3c0,4.6-1.1,8.7-3.2,12.3
			c-2.1,3.6-4.9,6.3-8.5,8.2c-3.6,1.9-7.6,2.9-12,2.9C156.7,198.7,152.7,197.7,149.2,195.8z M166.9,187.2c1.8-1,3.3-2.5,4.4-4.6
			c1.1-2,1.6-4.5,1.6-7.4c0-4.3-1.1-7.6-3.4-10c-2.3-2.3-5-3.5-8.3-3.5c-3.3,0-6,1.2-8.2,3.5c-2.2,2.3-3.3,5.6-3.3,10
			c0,4.3,1.1,7.6,3.2,10c2.2,2.3,4.9,3.5,8.2,3.5C163.1,188.7,165.1,188.2,166.9,187.2z"/>
		<path d="M263.1,157c3.4,3.4,5.1,8.2,5.1,14.3V198h-11.5v-25.1c0-3.6-0.9-6.3-2.7-8.2c-1.8-1.9-4.3-2.8-7.4-2.8
			c-3.1,0-5.6,0.9-7.4,2.8c-1.8,1.9-2.7,4.6-2.7,8.2V198H225v-25.1c0-3.6-0.9-6.3-2.7-8.2c-1.8-1.9-4.3-2.8-7.4-2.8
			c-3.2,0-5.7,0.9-7.5,2.8c-1.8,1.9-2.7,4.6-2.7,8.2V198h-11.5v-45.4h11.5v5.5c1.5-1.9,3.4-3.4,5.7-4.5c2.3-1.1,4.9-1.6,7.7-1.6
			c3.6,0,6.7,0.8,9.5,2.3c2.8,1.5,4.9,3.6,6.5,6.4c1.5-2.6,3.6-4.7,6.4-6.3c2.8-1.6,5.9-2.4,9.1-2.4
			C255.2,151.9,259.7,153.6,263.1,157z"/>
		<path d="M278.9,162.9c1.8-3.6,4.3-6.3,7.5-8.2c3.1-1.9,6.7-2.9,10.5-2.9c3.4,0,6.4,0.7,8.9,2c2.5,1.4,4.6,3.1,6.1,5.2v-6.5h11.6
			V198h-11.6v-6.6c-1.5,2.1-3.5,3.9-6.1,5.3c-2.6,1.4-5.6,2.1-9,2.1c-3.8,0-7.3-1-10.5-3c-3.1-2-5.6-4.7-7.5-8.3
			c-1.8-3.6-2.7-7.7-2.7-12.3C276.2,170.5,277.1,166.4,278.9,162.9z M310.3,168.1c-1.1-2-2.6-3.5-4.4-4.6c-1.9-1.1-3.9-1.6-6-1.6
			c-2.1,0-4.1,0.5-5.9,1.6c-1.8,1-3.3,2.6-4.4,4.6c-1.1,2-1.7,4.4-1.7,7.1c0,2.7,0.6,5.1,1.7,7.2c1.1,2.1,2.6,3.6,4.4,4.7
			c1.8,1.1,3.8,1.6,5.9,1.6c2.1,0,4.1-0.5,6-1.6c1.9-1.1,3.3-2.6,4.4-4.6c1.1-2,1.6-4.4,1.6-7.2S311.4,170.1,310.3,168.1z"/>
		<path d="M348.1,162v22c0,1.5,0.4,2.6,1.1,3.3c0.7,0.7,2,1,3.7,1h5.3v9.7H351c-9.7,0-14.5-4.7-14.5-14.1V162h-5.4v-9.4h5.4v-11.2
			h11.6v11.2h10.2v9.4H348.1z"/>
		<path d="M374.9,195.8c-3.5-1.9-6.2-4.7-8.2-8.2c-2-3.6-3-7.7-3-12.3c0-4.6,1-8.7,3.1-12.3c2.1-3.6,4.9-6.3,8.4-8.2
			c3.6-1.9,7.5-2.9,11.9-2.9c4.4,0,8.3,1,11.9,2.9c3.6,1.9,6.4,4.7,8.4,8.2c2,3.6,3.1,7.7,3.1,12.3c0,4.6-1.1,8.7-3.2,12.3
			c-2.1,3.6-4.9,6.3-8.5,8.2c-3.6,1.9-7.6,2.9-12,2.9C382.3,198.7,378.4,197.7,374.9,195.8z M392.5,187.2c1.8-1,3.3-2.5,4.4-4.6
			c1.1-2,1.6-4.5,1.6-7.4c0-4.3-1.1-7.6-3.4-10c-2.3-2.3-5-3.5-8.3-3.5c-3.3,0-6,1.2-8.2,3.5c-2.2,2.3-3.3,5.6-3.3,10
			c0,4.3,1.1,7.6,3.2,10c2.2,2.3,4.9,3.5,8.2,3.5C388.8,188.7,390.7,188.2,392.5,187.2z"/>
		<path d="M426.2,196.7c-3-1.3-5.3-3.2-7-5.5c-1.7-2.3-2.7-4.8-2.8-7.6h11.6c0.2,1.8,1.1,3.2,2.6,4.3c1.5,1.1,3.4,1.7,5.6,1.7
			c2.2,0,3.9-0.4,5.1-1.3c1.2-0.9,1.8-2,1.8-3.4c0-1.5-0.8-2.6-2.3-3.3c-1.5-0.7-3.9-1.5-7.2-2.4c-3.4-0.8-6.2-1.7-8.3-2.5
			c-2.2-0.9-4-2.2-5.6-4c-1.6-1.8-2.3-4.2-2.3-7.3c0-2.5,0.7-4.8,2.2-6.9c1.4-2.1,3.5-3.7,6.2-4.9c2.7-1.2,5.9-1.8,9.6-1.8
			c5.4,0,9.7,1.4,13,4.1c3.2,2.7,5,6.4,5.3,10.9h-11c-0.2-1.8-0.9-3.2-2.3-4.3c-1.3-1.1-3.1-1.6-5.4-1.6c-2.1,0-3.7,0.4-4.8,1.1
			c-1.1,0.8-1.7,1.8-1.7,3.2c0,1.5,0.8,2.7,2.3,3.5c1.5,0.8,3.9,1.6,7.1,2.4c3.3,0.8,6,1.7,8.1,2.5c2.1,0.9,4,2.2,5.5,4.1
			c1.6,1.8,2.4,4.3,2.4,7.3c0,2.6-0.7,5-2.2,7.1c-1.4,2.1-3.5,3.7-6.2,4.9c-2.7,1.2-5.9,1.8-9.5,1.8
			C432.5,198.7,429.2,198,426.2,196.7z"/>
		<path d="M505.4,178.7h-33.2c0.3,3.3,1.4,5.8,3.4,7.7c2,1.9,4.5,2.8,7.5,2.8c4.3,0,7.3-1.8,9.1-5.5h12.4c-1.3,4.4-3.8,8-7.5,10.8
			c-3.7,2.8-8.3,4.2-13.7,4.2c-4.4,0-8.3-1-11.8-2.9c-3.5-1.9-6.2-4.7-8.1-8.2c-1.9-3.6-2.9-7.7-2.9-12.3c0-4.7,1-8.8,2.9-12.4
			c1.9-3.6,4.6-6.3,8-8.2c3.4-1.9,7.4-2.9,11.9-2.9c4.3,0,8.2,0.9,11.6,2.8c3.4,1.9,6.1,4.5,8,7.9c1.9,3.4,2.8,7.3,2.8,11.8
			C505.7,175.9,505.6,177.4,505.4,178.7z M493.9,171c-0.1-3-1.1-5.3-3.2-7.1c-2.1-1.8-4.6-2.7-7.6-2.7c-2.8,0-5.2,0.9-7.2,2.6
			c-1.9,1.7-3.1,4.1-3.6,7.2H493.9z"/>
	</g>
	<g>
		<path d="M170.8,84.6v27.8h-4.6v-12.2h-13.1v12.2h-4.6V84.6h4.6v11.9h13.1V84.6H170.8z"/>
		<path d="M196.9,103.1H180c0.1,1.8,0.8,3.2,2,4.2c1.2,1.1,2.6,1.6,4.3,1.6c2.5,0,4.2-1,5.2-3.1h4.9c-0.7,2-1.9,3.7-3.6,5
			c-1.7,1.3-3.9,1.9-6.5,1.9c-2.1,0-4-0.5-5.7-1.4c-1.7-0.9-3-2.3-3.9-4c-0.9-1.7-1.4-3.7-1.4-6c0-2.3,0.5-4.3,1.4-6s2.2-3,3.9-4
			c1.7-0.9,3.6-1.4,5.7-1.4c2.1,0,3.9,0.5,5.6,1.4c1.6,0.9,2.9,2.2,3.8,3.8c0.9,1.6,1.4,3.5,1.4,5.7
			C197,101.6,197,102.4,196.9,103.1z M192.3,99.4c0-1.7-0.6-3-1.8-4c-1.2-1-2.6-1.5-4.4-1.5c-1.6,0-2.9,0.5-4,1.5
			c-1.1,1-1.8,2.4-2,4.1H192.3z"/>
		<path d="M206.1,82.8v29.6h-4.6V82.8H206.1z"/>
		<path d="M216.6,82.8v29.6h-4.6V82.8H216.6z"/>
		<path d="M226.6,111.3c-1.7-0.9-3-2.3-4-4c-1-1.7-1.4-3.7-1.4-6c0-2.2,0.5-4.2,1.5-6c1-1.7,2.3-3.1,4-4c1.7-0.9,3.6-1.4,5.7-1.4
			s4,0.5,5.7,1.4c1.7,0.9,3.1,2.3,4,4c1,1.7,1.5,3.7,1.5,6c0,2.2-0.5,4.2-1.5,6c-1,1.7-2.4,3.1-4.1,4c-1.7,0.9-3.7,1.4-5.8,1.4
			C230.1,112.7,228.2,112.3,226.6,111.3z M235.5,107.9c1-0.6,1.9-1.4,2.5-2.5c0.6-1.1,1-2.5,1-4.1s-0.3-3-0.9-4.1
			c-0.6-1.1-1.4-1.9-2.4-2.5c-1-0.6-2.1-0.8-3.3-0.8c-1.2,0-2.3,0.3-3.3,0.8s-1.8,1.4-2.4,2.5c-0.6,1.1-0.9,2.5-0.9,4.1
			c0,2.4,0.6,4.2,1.8,5.5c1.2,1.3,2.7,1.9,4.6,1.9C233.4,108.8,234.5,108.5,235.5,107.9z"/>
		<path d="M249.5,111.8c-0.6-0.6-0.8-1.3-0.8-2.1c0-0.8,0.3-1.5,0.8-2.1c0.6-0.6,1.3-0.8,2.1-0.8c0.8,0,1.5,0.3,2,0.8
			c0.6,0.6,0.8,1.3,0.8,2.1c0,0.8-0.3,1.5-0.8,2.1s-1.2,0.8-2,0.8C250.8,112.7,250.1,112.4,249.5,111.8z M253.9,84.6l-0.5,19.4h-3.8
			L249,84.6H253.9z"/>
		<path d="M276,84.6v27.8h-4.6V84.6H276z"/>
		<path d="M292.2,95.4c0.9-1.7,2.2-3,3.8-4c1.6-0.9,3.3-1.4,5.3-1.4c1.7,0,3.2,0.3,4.5,1c1.3,0.7,2.3,1.5,3.1,2.5v-3.2h4.6v22h-4.6
			v-3.3c-0.8,1-1.8,1.9-3.2,2.6c-1.3,0.7-2.9,1-4.6,1c-1.9,0-3.6-0.5-5.2-1.5c-1.6-1-2.8-2.3-3.7-4.1c-0.9-1.7-1.4-3.7-1.4-5.9
			C290.8,99,291.3,97.1,292.2,95.4z M307.9,97.4c-0.6-1.1-1.4-2-2.5-2.6c-1-0.6-2.1-0.9-3.3-0.9c-1.2,0-2.3,0.3-3.3,0.9
			c-1,0.6-1.8,1.4-2.5,2.5c-0.6,1.1-0.9,2.4-0.9,3.9s0.3,2.9,0.9,4c0.6,1.1,1.5,2,2.5,2.6c1,0.6,2.1,0.9,3.3,0.9
			c1.2,0,2.3-0.3,3.3-0.9c1-0.6,1.8-1.4,2.5-2.6c0.6-1.1,0.9-2.5,0.9-4S308.6,98.5,307.9,97.4z"/>
		<path d="M350.8,91.1c1.4,0.7,2.5,1.8,3.2,3.2c0.8,1.4,1.2,3.1,1.2,5.1v13h-4.5v-12.3c0-2-0.5-3.5-1.5-4.5c-1-1.1-2.3-1.6-4-1.6
			c-1.7,0-3.1,0.5-4.1,1.6c-1,1.1-1.5,2.6-1.5,4.5v12.3h-4.5v-12.3c0-2-0.5-3.5-1.5-4.5c-1-1.1-2.3-1.6-4-1.6
			c-1.7,0-3.1,0.5-4.1,1.6c-1,1.1-1.5,2.6-1.5,4.5v12.3h-4.6v-22h4.6v2.5c0.7-0.9,1.7-1.6,2.8-2.1c1.1-0.5,2.4-0.8,3.7-0.8
			c1.8,0,3.3,0.4,4.7,1.1c1.4,0.7,2.5,1.8,3.2,3.2c0.7-1.3,1.7-2.4,3.1-3.2c1.4-0.8,2.9-1.2,4.6-1.2C347.9,90,349.5,90.3,350.8,91.1
			z"/>
	</g>
	<g>
		<path d="M80.7,232.9c0.9-1.7,2.2-3,3.8-4c1.6-0.9,3.3-1.4,5.3-1.4c1.7,0,3.2,0.3,4.5,1c1.3,0.7,2.3,1.5,3.1,2.5v-3.2h4.6v22h-4.6
			v-3.3c-0.8,1-1.8,1.9-3.2,2.6c-1.3,0.7-2.9,1-4.6,1c-1.9,0-3.6-0.5-5.2-1.5c-1.6-1-2.8-2.3-3.7-4.1s-1.4-3.7-1.4-5.9
			C79.3,236.6,79.8,234.6,80.7,232.9z M96.4,234.9c-0.6-1.1-1.4-2-2.5-2.6c-1-0.6-2.1-0.9-3.3-0.9c-1.2,0-2.3,0.3-3.3,0.9
			c-1,0.6-1.8,1.4-2.5,2.5c-0.6,1.1-0.9,2.4-0.9,3.9c0,1.5,0.3,2.9,0.9,4c0.6,1.1,1.5,2,2.5,2.6c1,0.6,2.1,0.9,3.3,0.9
			c1.2,0,2.3-0.3,3.3-0.9c1-0.6,1.8-1.4,2.5-2.6c0.6-1.1,0.9-2.5,0.9-4C97.4,237.4,97.1,236.1,96.4,234.9z"/>
		<path d="M123.8,228.6c1.4,0.7,2.4,1.8,3.2,3.2c0.8,1.4,1.2,3.1,1.2,5.1v13h-4.5v-12.3c0-2-0.5-3.5-1.5-4.5c-1-1.1-2.3-1.6-4-1.6
			c-1.7,0-3.1,0.5-4.1,1.6c-1,1.1-1.5,2.6-1.5,4.5v12.3H108v-22h4.6v2.5c0.7-0.9,1.7-1.6,2.9-2.1s2.4-0.8,3.7-0.8
			C120.8,227.5,122.4,227.9,123.8,228.6z"/>
		<path d="M133.8,232.9c0.9-1.7,2.2-3,3.8-4c1.6-0.9,3.4-1.4,5.3-1.4c1.4,0,2.9,0.3,4.3,0.9c1.4,0.6,2.5,1.5,3.3,2.5v-10.6h4.6v29.6
			h-4.6v-3.3c-0.7,1.1-1.8,1.9-3.1,2.6c-1.3,0.7-2.8,1-4.5,1c-1.9,0-3.7-0.5-5.3-1.5c-1.6-1-2.8-2.3-3.8-4.1s-1.4-3.7-1.4-5.9
			C132.4,236.6,132.9,234.6,133.8,232.9z M149.5,234.9c-0.6-1.1-1.4-2-2.5-2.6c-1-0.6-2.1-0.9-3.3-0.9c-1.2,0-2.3,0.3-3.3,0.9
			c-1,0.6-1.8,1.4-2.5,2.5c-0.6,1.1-0.9,2.4-0.9,3.9c0,1.5,0.3,2.9,0.9,4c0.6,1.1,1.5,2,2.5,2.6c1,0.6,2.1,0.9,3.3,0.9
			c1.2,0,2.3-0.3,3.3-0.9c1-0.6,1.8-1.4,2.5-2.6c0.6-1.1,0.9-2.5,0.9-4C150.5,237.4,150.2,236.1,149.5,234.9z"/>
		<path d="M176,222.1v27.8h-4.6v-27.8H176z"/>
		<path d="M184.5,218.1l-0.5,8.2h-3.1l-0.5-8.2H184.5z"/>
		<path d="M220.2,228.6c1.4,0.7,2.5,1.8,3.2,3.2c0.8,1.4,1.2,3.1,1.2,5.1v13h-4.5v-12.3c0-2-0.5-3.5-1.5-4.5c-1-1.1-2.3-1.6-4-1.6
			c-1.7,0-3.1,0.5-4.1,1.6c-1,1.1-1.5,2.6-1.5,4.5v12.3h-4.5v-12.3c0-2-0.5-3.5-1.5-4.5c-1-1.1-2.3-1.6-4-1.6
			c-1.7,0-3.1,0.5-4.1,1.6c-1,1.1-1.5,2.6-1.5,4.5v12.3h-4.6v-22h4.6v2.5c0.7-0.9,1.7-1.6,2.8-2.1c1.1-0.5,2.4-0.8,3.7-0.8
			c1.8,0,3.3,0.4,4.7,1.1c1.4,0.7,2.5,1.8,3.2,3.2c0.7-1.3,1.7-2.4,3.1-3.2c1.4-0.8,2.9-1.2,4.6-1.2
			C217.3,227.5,218.9,227.9,220.2,228.6z"/>
		<path d="M240.7,232.9c0.9-1.7,2.2-3,3.8-4c1.6-0.9,3.3-1.4,5.3-1.4c1.7,0,3.2,0.3,4.5,1c1.3,0.7,2.3,1.5,3.1,2.5v-3.2h4.6v22h-4.6
			v-3.3c-0.8,1-1.8,1.9-3.2,2.6c-1.3,0.7-2.9,1-4.6,1c-1.9,0-3.6-0.5-5.2-1.5c-1.6-1-2.8-2.3-3.7-4.1s-1.4-3.7-1.4-5.9
			C239.3,236.6,239.8,234.6,240.7,232.9z M256.4,234.9c-0.6-1.1-1.4-2-2.5-2.6c-1-0.6-2.1-0.9-3.3-0.9c-1.2,0-2.3,0.3-3.3,0.9
			c-1,0.6-1.8,1.4-2.5,2.5c-0.6,1.1-0.9,2.4-0.9,3.9c0,1.5,0.3,2.9,0.9,4c0.6,1.1,1.5,2,2.5,2.6c1,0.6,2.1,0.9,3.3,0.9
			c1.2,0,2.3-0.3,3.3-0.9c1-0.6,1.8-1.4,2.5-2.6c0.6-1.1,0.9-2.5,0.9-4C257.4,237.4,257.1,236.1,256.4,234.9z"/>
		<path d="M287.6,231.6h-4.1v18.3h-4.6v-18.3h-2.6v-3.7h2.6v-1.6c0-2.5,0.7-4.4,2-5.5c1.3-1.2,3.5-1.7,6.3-1.7v3.8
			c-1.4,0-2.4,0.3-2.9,0.8c-0.6,0.5-0.8,1.4-0.8,2.7v1.6h4.1V231.6z"/>
		<path d="M298.9,228.5c1.1-0.6,2.4-0.9,3.9-0.9v4.7h-1.2c-1.8,0-3.1,0.5-4.1,1.4c-0.9,0.9-1.4,2.5-1.4,4.7v11.6h-4.6v-22h4.6v3.2
			C296.9,230,297.8,229.1,298.9,228.5z"/>
		<path d="M310.9,248.9c-1.7-0.9-3-2.3-4-4c-1-1.7-1.4-3.7-1.4-6c0-2.2,0.5-4.2,1.5-6c1-1.7,2.3-3.1,4-4c1.7-0.9,3.6-1.4,5.7-1.4
			s4,0.5,5.7,1.4c1.7,0.9,3.1,2.3,4,4c1,1.7,1.5,3.7,1.5,6s-0.5,4.2-1.5,6c-1,1.7-2.4,3.1-4.1,4s-3.7,1.4-5.8,1.4
			C314.5,250.3,312.6,249.8,310.9,248.9z M319.9,245.5c1-0.6,1.9-1.4,2.5-2.5c0.6-1.1,1-2.5,1-4.1s-0.3-3-0.9-4.1
			c-0.6-1.1-1.4-1.9-2.4-2.5c-1-0.6-2.1-0.8-3.3-0.8c-1.2,0-2.3,0.3-3.3,0.8c-1,0.6-1.8,1.4-2.4,2.5c-0.6,1.1-0.9,2.5-0.9,4.1
			c0,2.4,0.6,4.2,1.8,5.5c1.2,1.3,2.7,1.9,4.6,1.9C317.8,246.3,318.9,246.1,319.9,245.5z"/>
		<path d="M348.3,228.6c1.4,0.7,2.4,1.8,3.2,3.2c0.8,1.4,1.2,3.1,1.2,5.1v13h-4.5v-12.3c0-2-0.5-3.5-1.5-4.5c-1-1.1-2.3-1.6-4-1.6
			c-1.7,0-3.1,0.5-4.1,1.6c-1,1.1-1.5,2.6-1.5,4.5v12.3h-4.6v-22h4.6v2.5c0.7-0.9,1.7-1.6,2.9-2.1s2.4-0.8,3.7-0.8
			C345.4,227.5,346.9,227.9,348.3,228.6z"/>
		<path d="M363.8,231.6v12.2c0,0.8,0.2,1.4,0.6,1.8c0.4,0.4,1,0.5,2,0.5h2.8v3.8h-3.6c-2.1,0-3.6-0.5-4.7-1.4
			c-1.1-1-1.6-2.5-1.6-4.7v-12.2h-2.6v-3.7h2.6v-5.5h4.6v5.5h5.4v3.7H363.8z"/>
		<path d="M393.4,240.6h-16.8c0.1,1.8,0.8,3.2,2,4.2c1.2,1.1,2.6,1.6,4.3,1.6c2.5,0,4.2-1,5.2-3.1h4.9c-0.7,2-1.9,3.7-3.6,5
			c-1.7,1.3-3.9,1.9-6.5,1.9c-2.1,0-4-0.5-5.7-1.4s-3-2.3-3.9-4c-0.9-1.7-1.4-3.7-1.4-6s0.5-4.3,1.4-6c0.9-1.7,2.2-3,3.9-4
			c1.7-0.9,3.6-1.4,5.7-1.4c2.1,0,3.9,0.5,5.6,1.4c1.6,0.9,2.9,2.2,3.8,3.8c0.9,1.6,1.4,3.5,1.4,5.7
			C393.6,239.2,393.5,239.9,393.4,240.6z M388.8,236.9c0-1.7-0.6-3-1.8-4c-1.2-1-2.6-1.5-4.4-1.5c-1.6,0-2.9,0.5-4,1.5
			c-1.1,1-1.8,2.4-2,4.1H388.8z"/>
		<path d="M413.8,228.6c1.4,0.7,2.4,1.8,3.2,3.2c0.8,1.4,1.2,3.1,1.2,5.1v13h-4.5v-12.3c0-2-0.5-3.5-1.5-4.5c-1-1.1-2.3-1.6-4-1.6
			c-1.7,0-3.1,0.5-4.1,1.6c-1,1.1-1.5,2.6-1.5,4.5v12.3h-4.6v-22h4.6v2.5c0.7-0.9,1.7-1.6,2.9-2.1s2.4-0.8,3.7-0.8
			C410.9,227.5,412.5,227.9,413.8,228.6z"/>
		<path d="M423.9,232.9c0.9-1.7,2.2-3,3.8-4c1.6-0.9,3.4-1.4,5.3-1.4c1.4,0,2.9,0.3,4.3,0.9c1.4,0.6,2.5,1.5,3.3,2.5v-10.6h4.6v29.6
			h-4.6v-3.3c-0.7,1.1-1.8,1.9-3.1,2.6c-1.3,0.7-2.8,1-4.5,1c-1.9,0-3.7-0.5-5.3-1.5c-1.6-1-2.8-2.3-3.8-4.1s-1.4-3.7-1.4-5.9
			C422.5,236.6,423,234.6,423.9,232.9z M439.6,234.9c-0.6-1.1-1.4-2-2.5-2.6c-1-0.6-2.1-0.9-3.3-0.9c-1.2,0-2.3,0.3-3.3,0.9
			c-1,0.6-1.8,1.4-2.5,2.5c-0.6,1.1-0.9,2.4-0.9,3.9c0,1.5,0.3,2.9,0.9,4c0.6,1.1,1.5,2,2.5,2.6c1,0.6,2.1,0.9,3.3,0.9
			c1.2,0,2.3-0.3,3.3-0.9c1-0.6,1.8-1.4,2.5-2.6c0.6-1.1,0.9-2.5,0.9-4C440.5,237.4,440.2,236.1,439.6,234.9z"/>
		<path d="M461.4,232.9c0.9-1.7,2.2-3,3.8-4c1.6-0.9,3.4-1.4,5.3-1.4c1.4,0,2.9,0.3,4.3,0.9c1.4,0.6,2.5,1.5,3.3,2.5v-10.6h4.6v29.6
			h-4.6v-3.3c-0.7,1.1-1.8,1.9-3.1,2.6c-1.3,0.7-2.8,1-4.5,1c-1.9,0-3.7-0.5-5.3-1.5c-1.6-1-2.8-2.3-3.8-4.1s-1.4-3.7-1.4-5.9
			C460,236.6,460.5,234.6,461.4,232.9z M477.1,234.9c-0.6-1.1-1.4-2-2.5-2.6c-1-0.6-2.1-0.9-3.3-0.9c-1.2,0-2.3,0.3-3.3,0.9
			c-1,0.6-1.8,1.4-2.5,2.5c-0.6,1.1-0.9,2.4-0.9,3.9c0,1.5,0.3,2.9,0.9,4c0.6,1.1,1.5,2,2.5,2.6c1,0.6,2.1,0.9,3.3,0.9
			c1.2,0,2.3-0.3,3.3-0.9c1-0.6,1.8-1.4,2.5-2.6c0.6-1.1,0.9-2.5,0.9-4C478.1,237.4,477.7,236.1,477.1,234.9z"/>
		<path d="M508.7,240.6h-16.8c0.1,1.8,0.8,3.2,2,4.2c1.2,1.1,2.6,1.6,4.3,1.6c2.5,0,4.2-1,5.2-3.1h4.9c-0.7,2-1.9,3.7-3.6,5
			c-1.7,1.3-3.9,1.9-6.5,1.9c-2.1,0-4-0.5-5.7-1.4s-3-2.3-3.9-4c-0.9-1.7-1.4-3.7-1.4-6s0.5-4.3,1.4-6c0.9-1.7,2.2-3,3.9-4
			c1.7-0.9,3.6-1.4,5.7-1.4c2.1,0,3.9,0.5,5.6,1.4c1.6,0.9,2.9,2.2,3.8,3.8c0.9,1.6,1.4,3.5,1.4,5.7
			C508.9,239.2,508.8,239.9,508.7,240.6z M504.1,236.9c0-1.7-0.6-3-1.8-4c-1.2-1-2.6-1.5-4.4-1.5c-1.6,0-2.9,0.5-4,1.5
			c-1.1,1-1.8,2.4-2,4.1H504.1z"/>
		<path d="M521.9,245.9l6.2-18h4.8l-8.4,22h-5.4l-8.4-22h4.9L521.9,245.9z"/>
		<path d="M556.4,240.6h-16.8c0.1,1.8,0.8,3.2,2,4.2c1.2,1.1,2.6,1.6,4.3,1.6c2.5,0,4.2-1,5.2-3.1h4.9c-0.7,2-1.9,3.7-3.6,5
			c-1.7,1.3-3.9,1.9-6.5,1.9c-2.1,0-4-0.5-5.7-1.4s-3-2.3-3.9-4c-0.9-1.7-1.4-3.7-1.4-6s0.5-4.3,1.4-6c0.9-1.7,2.2-3,3.9-4
			c1.7-0.9,3.6-1.4,5.7-1.4c2.1,0,3.9,0.5,5.6,1.4c1.6,0.9,2.9,2.2,3.8,3.8c0.9,1.6,1.4,3.5,1.4,5.7
			C556.6,239.2,556.5,239.9,556.4,240.6z M551.8,236.9c0-1.7-0.6-3-1.8-4c-1.2-1-2.6-1.5-4.4-1.5c-1.6,0-2.9,0.5-4,1.5
			c-1.1,1-1.8,2.4-2,4.1H551.8z"/>
		<path d="M565.6,220.3v29.6h-4.6v-29.6H565.6z"/>
		<path d="M575.5,248.9c-1.7-0.9-3-2.3-4-4c-1-1.7-1.4-3.7-1.4-6c0-2.2,0.5-4.2,1.5-6c1-1.7,2.3-3.1,4-4c1.7-0.9,3.6-1.4,5.7-1.4
			s4,0.5,5.7,1.4c1.7,0.9,3.1,2.3,4,4c1,1.7,1.5,3.7,1.5,6s-0.5,4.2-1.5,6c-1,1.7-2.4,3.1-4.1,4s-3.7,1.4-5.8,1.4
			C579.1,250.3,577.2,249.8,575.5,248.9z M584.5,245.5c1-0.6,1.9-1.4,2.5-2.5c0.6-1.1,1-2.5,1-4.1s-0.3-3-0.9-4.1
			c-0.6-1.1-1.4-1.9-2.4-2.5c-1-0.6-2.1-0.8-3.3-0.8c-1.2,0-2.3,0.3-3.3,0.8c-1,0.6-1.8,1.4-2.4,2.5c-0.6,1.1-0.9,2.5-0.9,4.1
			c0,2.4,0.6,4.2,1.8,5.5c1.2,1.3,2.7,1.9,4.6,1.9C582.4,246.3,583.5,246.1,584.5,245.5z"/>
		<path d="M604.9,228.6c1.3-0.7,2.8-1,4.5-1c1.9,0,3.7,0.5,5.3,1.4c1.6,0.9,2.8,2.3,3.7,4c0.9,1.7,1.4,3.7,1.4,5.9
			c0,2.2-0.5,4.2-1.4,5.9c-0.9,1.7-2.2,3.1-3.7,4.1c-1.6,1-3.3,1.5-5.3,1.5c-1.7,0-3.2-0.3-4.5-1s-2.4-1.5-3.2-2.5v13.7h-4.6v-32.5
			h4.6v3.2C602.5,230.1,603.5,229.3,604.9,228.6z M614.2,234.9c-0.6-1.1-1.5-1.9-2.5-2.5c-1-0.6-2.1-0.9-3.3-0.9
			c-1.1,0-2.2,0.3-3.3,0.9c-1,0.6-1.9,1.4-2.5,2.6c-0.6,1.1-0.9,2.4-0.9,4c0,1.5,0.3,2.8,0.9,4c0.6,1.1,1.5,2,2.5,2.6
			c1,0.6,2.1,0.9,3.3,0.9c1.2,0,2.3-0.3,3.3-0.9c1-0.6,1.9-1.5,2.5-2.6c0.6-1.1,0.9-2.5,0.9-4C615.1,237.3,614.8,236,614.2,234.9z"
			/>
		<path d="M644.3,240.6h-16.8c0.1,1.8,0.8,3.2,2,4.2c1.2,1.1,2.6,1.6,4.3,1.6c2.5,0,4.2-1,5.2-3.1h4.9c-0.7,2-1.9,3.7-3.6,5
			c-1.7,1.3-3.9,1.9-6.5,1.9c-2.1,0-4-0.5-5.7-1.4s-3-2.3-3.9-4c-0.9-1.7-1.4-3.7-1.4-6s0.5-4.3,1.4-6c0.9-1.7,2.2-3,3.9-4
			c1.7-0.9,3.6-1.4,5.7-1.4c2.1,0,3.9,0.5,5.6,1.4c1.6,0.9,2.9,2.2,3.8,3.8c0.9,1.6,1.4,3.5,1.4,5.7
			C644.5,239.2,644.4,239.9,644.3,240.6z M639.7,236.9c0-1.7-0.6-3-1.8-4c-1.2-1-2.6-1.5-4.4-1.5c-1.6,0-2.9,0.5-4,1.5
			c-1.1,1-1.8,2.4-2,4.1H639.7z"/>
		<path d="M656.2,228.5c1.1-0.6,2.4-0.9,3.9-0.9v4.7h-1.2c-1.8,0-3.1,0.5-4.1,1.4c-0.9,0.9-1.4,2.5-1.4,4.7v11.6h-4.6v-22h4.6v3.2
			C654.2,230,655.1,229.1,656.2,228.5z"/>
		<path d="M674.5,232.6c-0.6-0.6-0.8-1.3-0.8-2.1c0-0.8,0.3-1.5,0.8-2.1c0.6-0.6,1.3-0.8,2.1-0.8c0.8,0,1.5,0.3,2,0.8
			c0.6,0.6,0.8,1.3,0.8,2.1c0,0.8-0.3,1.5-0.8,2.1c-0.6,0.6-1.2,0.8-2,0.8C675.7,233.4,675,233.1,674.5,232.6z M674.5,249.4
			c-0.6-0.6-0.8-1.3-0.8-2.1s0.3-1.5,0.8-2.1c0.6-0.6,1.3-0.8,2.1-0.8c0.8,0,1.5,0.3,2,0.8c0.6,0.6,0.8,1.3,0.8,2.1
			s-0.3,1.5-0.8,2.1c-0.6,0.6-1.2,0.8-2,0.8C675.7,250.2,675,249.9,674.5,249.4z"/>
		<path d="M683.4,257.4v-0.4c2.7-2.8,4.8-6.1,6.3-9.9s2.2-7.7,2.2-11.7c0-4.2-0.8-8.3-2.3-12.2c-1.5-3.9-3.9-7.3-6.9-10.2v-0.4h4.7
			c2.9,2.6,5.2,5.9,6.7,10c1.5,4,2.3,8.3,2.3,12.8c0,4.4-0.7,8.6-2.1,12.4s-3.4,7.1-6,9.6H683.4z"/>
	</g>
	<g>
		<rect x="609.6" y="84.6" class="st1" width="2.4" height="4.4"/>
	</g>
</g>
<g id="Слой_2">
	<g>
		<g>
			<path class="st2" d="M83.7,112.1c-0.5-0.1-0.9-0.2-1.4-0.4c-0.5-0.2-0.9-0.3-1.3-0.5c-0.9-0.4-1.7-0.9-2.6-1.4
				c-1.6-1.1-3-2.5-4-4.2c-1-1.6-1.6-3.5-1.7-5.3c-0.1-1,0-1.8,0.1-2.8c0.1-0.5,0.2-0.9,0.3-1.3c0.1-0.5,0.3-0.9,0.4-1.3l0.1,1.3
				c0,0.5,0.1,0.9,0.2,1.3c0.1,0.9,0.3,1.7,0.5,2.5c0.4,1.6,1,3.2,1.9,4.6c0.9,1.4,1.9,2.8,3.3,4c0.6,0.6,1.3,1.1,2.1,1.7
				c0.3,0.3,0.7,0.6,1.1,0.9L83.7,112.1"/>
			<path class="st2" d="M83.4,115.5c-0.3,0.2-0.7,0.3-1.1,0.4c-0.4,0.1-0.7,0.2-1.1,0.2c-0.7,0.1-1.5,0.2-2.4,0.1
				c-1.5-0.1-3.2-0.5-4.5-1.1c-1.4-0.7-2.7-1.7-3.5-3c-0.4-0.6-0.8-1.2-1.1-1.9c-0.1-0.3-0.2-0.7-0.3-1.1c0-0.3-0.1-0.6-0.1-1
				c0.3,0.3,0.5,0.6,0.7,0.8c0.3,0.3,0.5,0.6,0.7,0.8c0.5,0.5,0.9,1,1.4,1.3c1,0.9,2.1,1.6,3.3,2.2c1.1,0.6,2.5,1.1,3.7,1.4
				c0.6,0.2,1.3,0.3,2.1,0.5c0.3,0.1,0.7,0.1,1,0.2C82.7,115.4,83,115.4,83.4,115.5"/>
			<path class="st2" d="M106.6,69.1c0.5,0.1,0.9,0.3,1.4,0.5c0.5,0.2,0.9,0.4,1.3,0.6c0.9,0.5,1.7,1,2.6,1.5c1.6,1.1,3,2.7,3.9,4.4
				c0.9,1.7,1.4,3.6,1.4,5.4c0,1-0.1,1.8-0.3,2.8c-0.1,0.5-0.2,0.9-0.4,1.3c-0.2,0.5-0.3,0.9-0.5,1.2l-0.1-1.3c0-0.5,0-0.9-0.1-1.3
				l-0.3-2.6c-0.3-1.6-0.9-3.2-1.7-4.8c-0.8-1.5-1.8-2.9-3.1-4.1c-0.6-0.7-1.3-1.2-1.9-1.9c-0.3-0.3-0.7-0.6-1.1-0.9L106.6,69.1"/>
			<path class="st2" d="M115.5,68.7c0.4,0.1,0.7,0.2,1,0.4c0.3,0.1,0.7,0.3,1,0.5c0.6,0.4,1.2,0.8,1.8,1.2c1.1,1,2.1,2.1,2.6,3.4
				c0.6,1.3,0.8,2.8,0.6,4.2c-0.1,0.7-0.3,1.3-0.5,2c-0.1,0.3-0.3,0.7-0.4,1c-0.2,0.3-0.3,0.6-0.6,0.9v-1.9c0-0.7-0.1-1.2-0.1-1.8
				c-0.2-1.2-0.4-2.4-0.9-3.4c-0.5-1.1-1.1-2.1-1.8-3.2c-0.4-0.5-0.8-1.1-1.2-1.5c-0.2-0.3-0.4-0.5-0.7-0.8
				C116,69.2,115.7,68.9,115.5,68.7"/>
		</g>
		<g>
			<path class="st3" d="M77.5,82.9c-2.1,0.9-2.8,3.2-1.8,5.1l12.9,25.1l7.2-3.2L82.8,84.7C81.9,82.8,79.5,82,77.5,82.9"/>
			<path class="st3" d="M111.4,102.9l7.6-3.3l-14.8-28.7c-1-1.9-3.5-2.8-5.6-1.8c-2.1,1-3,3.2-1.9,5.3L111.4,102.9"/>
		</g>
		<path class="st4" d="M98.7,69c-0.2,0.1-0.4,0.2-0.6,0.4c1.9-0.5,4,0.4,4.9,2.1l14.8,28.7l1.3-0.6l-14.8-28.7
			C103.3,68.9,100.9,68,98.7,69"/>
		<path class="st3" d="M95.7,109.9l7.9-3.5L88.6,77.1c-1-2-3.7-3-5.8-2c-2.2,1-3.1,3.4-2.1,5.4L95.7,109.9"/>
		<path class="st4" d="M82.7,75.2c-0.2,0.1-0.4,0.2-0.6,0.4c1.9-0.5,4.2,0.4,5.1,2.2L96.6,96l2.3,1.2L88.6,77.2
			C87.5,75.1,85,74.2,82.7,75.2"/>
		<path class="st3" d="M102.4,104l7.9-3.5L95.2,71.3c-1-2-3.7-3-5.8-1.9c-2.2,1-3.1,3.4-2.1,5.4L102.4,104"/>
		<g>
			<path class="st4" d="M89.4,69.3c-0.2,0.1-0.4,0.3-0.6,0.4c1.9-0.5,4.2,0.4,5.1,2.2l10.6,20.6l2.3,1.2L95.2,71.3
				C94.2,69.2,91.5,68.3,89.4,69.3"/>
			<path class="st4" d="M77.5,82.9c-0.2,0.1-0.4,0.2-0.6,0.4c1.8-0.5,3.8,0.4,4.6,2.1l7.7,15l2.3,1.2l-8.6-16.8
				C81.9,82.8,79.5,82,77.5,82.9"/>
		</g>
		<path class="st3" d="M129.6,80.1c-2.8-2-7.3,0.2-9.5,7.1c-1.5,4.8-1.7,6.2-5,7.6l-1.8-3.5c0,0-29.1,13.1-28,15.2
			c0,0,3.5,10.1,9.4,14.8c8.8,7.1,29.4-0.5,30.4-18.7C125.5,91.9,132.6,82.3,129.6,80.1"/>
		<g>
			<path class="st4" d="M129.6,80.1c-0.5-0.4-1.1-0.6-1.7-0.7c0.1,0.1,0.3,0.1,0.4,0.2c3.1,2.2-0.1,7.3-1.8,11.8
				c-1.4,3.6-2.7,7.4-2.5,11c0.8,15.9-16.3,23.4-26.6,20.5c10.1,3.9,28.7-3.5,27.9-20.1c-0.2-3.6,0.9-7.2,2.5-11
				C129.4,87.3,132.6,82.3,129.6,80.1"/>
			<path class="st4" d="M115.9,94.4c-6.4,0.7-15.7,9.2-9.1,18.4c-4.8-9.4,3.1-15.7,8.1-17.9C115.4,94.6,115.9,94.4,115.9,94.4"/>
		</g>
	</g>
</g>
</svg>
